<?xml version="1.0" encoding="UTF-8" standalone="no"?>
<svg
   xmlns:dc="http://purl.org/dc/elements/1.1/"
   xmlns:cc="http://creativecommons.org/ns#"
   xmlns:rdf="http://www.w3.org/1999/02/22-rdf-syntax-ns#"
   xmlns:svg="http://www.w3.org/2000/svg"
   xmlns="http://www.w3.org/2000/svg"
   xmlns:sodipodi="http://sodipodi.sourceforge.net/DTD/sodipodi-0.dtd"
   xmlns:inkscape="http://www.inkscape.org/namespaces/inkscape"
   version="1.1"
   id="svg10"
   xml:space="preserve"
   width="227.55882"
   height="114.24431"
   viewBox="0 0 227.55883 114.24431"
   sodipodi:docname="logo cloud.svg"
   inkscape:version="1.0.2 (e86c8708, 2021-01-15)"><sodipodi:namedview
     pagecolor="#ffffff"
     bordercolor="#666666"
     borderopacity="1"
     objecttolerance="10"
     gridtolerance="10"
     guidetolerance="10"
     inkscape:pageopacity="0"
     inkscape:pageshadow="2"
     inkscape:window-width="1440"
     inkscape:window-height="872"
     id="namedview78"
     showgrid="false"
     inkscape:pagecheckerboard="true"
     inkscape:zoom="2.8021358"
     inkscape:cx="155.50022"
     inkscape:cy="40.006389"
     inkscape:window-x="0"
     inkscape:window-y="28"
     inkscape:window-maximized="0"
     inkscape:current-layer="svg10"><sodipodi:guide
       position="0,114.24431"
       orientation="0,227.55882"
       id="guide106" /><sodipodi:guide
       position="227.55883,114.24431"
       orientation="114.24431,0"
       id="guide108" /><sodipodi:guide
       position="227.55883,0"
       orientation="0,-227.55882"
       id="guide110" /><sodipodi:guide
       position="0,0"
       orientation="-114.24431,0"
       id="guide112" /></sodipodi:namedview><metadata
     id="metadata16"><rdf:RDF><cc:Work
         rdf:about=""><dc:format>image/svg+xml</dc:format><dc:type
           rdf:resource="http://purl.org/dc/dcmitype/StillImage" /><dc:title></dc:title></cc:Work></rdf:RDF></metadata><defs
     id="defs14"><linearGradient
       x1="0"
       y1="0"
       x2="1"
       y2="0"
       gradientUnits="userSpaceOnUse"
       gradientTransform="matrix(-8.0540342,280.74063,280.74063,8.0540342,155.45042,5.4977317)"
       spreadMethod="pad"
       id="linearGradient38"><stop
         style="stop-opacity:1;stop-color:#d8eefb"
         offset="0"
         id="stop32" /><stop
         style="stop-opacity:1;stop-color:#91d4f5"
         offset="0.99374932"
         id="stop34" /><stop
         style="stop-opacity:1;stop-color:#91d4f5"
         offset="1"
         id="stop36" /></linearGradient><clipPath
       clipPathUnits="userSpaceOnUse"
       id="clipPath80"><path
         d="M 0,283.46 H 283.46 V 0 H 0 Z"
         id="path78" /></clipPath></defs><g
     id="g18"
     transform="matrix(1.3333333,0,0,-1.3333333,-150.38783,377.94666)"><g
       id="g42"
       style="display:inline"><path
         id="path95"
         clip-path="none"
         style="color:#000000;font-style:normal;font-variant:normal;font-weight:normal;font-stretch:normal;font-size:medium;line-height:normal;font-family:sans-serif;font-variant-ligatures:normal;font-variant-position:normal;font-variant-caps:normal;font-variant-numeric:normal;font-variant-alternates:normal;font-variant-east-asian:normal;font-feature-settings:normal;font-variation-settings:normal;text-indent:0;text-align:start;text-decoration:none;text-decoration-line:none;text-decoration-style:solid;text-decoration-color:#000000;letter-spacing:normal;word-spacing:normal;text-transform:none;writing-mode:lr-tb;direction:ltr;text-orientation:mixed;dominant-baseline:auto;baseline-shift:baseline;text-anchor:start;white-space:normal;shape-padding:0;shape-margin:0;inline-size:0;clip-rule:nonzero;display:inline;overflow:visible;visibility:visible;isolation:auto;mix-blend-mode:normal;color-interpolation:sRGB;color-interpolation-filters:linearRGB;solid-color:#000000;solid-opacity:1;vector-effect:none;fill:#ffffff;fill-opacity:1;fill-rule:nonzero;stroke:none;stroke-width:1.33333;stroke-linecap:butt;stroke-linejoin:miter;stroke-miterlimit:10;stroke-dasharray:none;stroke-dashoffset:0;stroke-opacity:1;color-rendering:auto;image-rendering:auto;shape-rendering:auto;text-rendering:auto;enable-background:accumulate;stop-color:#000000;stop-opacity:1"
         d="M 90.117188 0 C 87.723321 2.0264399 85.72248 4.4746065 84.314453 7.2519531 C 83.01812 9.8089931 82.212236 12.630647 82.035156 15.619141 C 81.967023 16.768807 82.079691 17.962863 82.205078 19.15625 C 82.096278 19.21345 82.099615 19.228043 81.980469 19.287109 L 81.976562 19.287109 C 80.961709 19.790643 80.060759 20.382681 79.261719 21.048828 C 76.864585 23.047281 75.378128 25.698512 74.421875 28.513672 C 74.069848 29.550005 74.060878 30.748659 73.894531 31.888672 C 71.388678 32.531659 69.108954 33.705462 67.308594 35.171875 C 65.466074 36.672595 63.956938 38.395412 62.703125 40.205078 C 62.572192 40.394118 62.508252 40.596296 62.382812 40.787109 C 61.282053 40.592976 60.173295 40.304134 59.105469 40.427734 C 57.468949 40.617161 56.052044 41.073283 54.775391 41.658203 C 53.498737 42.243136 52.363049 42.956884 51.292969 43.654297 C 50.063315 44.455044 49.583139 44.523042 48.134766 44.669922 C 46.686392 44.816802 44.246376 44.808227 41.166016 45.625 C 39.682256 46.01852 38.323179 46.52539 37.074219 47.09375 C 33.327352 48.798843 30.551057 51.044689 28.21875 52.353516 C 27.073537 52.996356 25.908429 53.390571 24.601562 53.648438 C 23.294696 53.906291 21.84384 54.029059 20.128906 54.130859 C 16.699026 54.334473 12.267177 54.364507 7.4648438 56.375 C 6.1418571 56.9292 4.9121864 57.529392 3.8144531 58.328125 C 2.7167065 59.126872 1.7502179 60.124683 0.95703125 61.476562 C -0.62935538 64.180322 -0.11316413 68.447068 1.5390625 70.609375 C 4.8435024 74.933988 9.0542439 75.518032 13.589844 75.263672 L 13.59375 75.263672 C 15.376763 75.163272 16.968146 74.869942 18.382812 74.539062 C 19.797466 74.208169 21.033821 73.837278 22.111328 73.580078 C 24.266355 73.065665 25.566075 72.968713 26.611328 73.251953 L 26.613281 73.251953 C 29.761735 74.105086 32.391453 75.349206 35.882812 76.380859 C 39.374159 77.412526 43.722373 77.973444 48.757812 77.029297 L 48.765625 77.029297 L 48.769531 77.025391 C 51.339651 76.537631 52.972913 75.589628 54.195312 75.048828 C 54.794366 74.783788 54.626132 74.836926 54.890625 74.759766 C 55.185798 75.392112 55.085001 75.485506 55.931641 76.632812 L 55.931641 76.634766 L 55.935547 76.634766 C 56.820054 77.832072 57.843108 78.943949 58.988281 79.916016 C 61.278641 81.860149 64.057259 83.248516 67.199219 83.664062 C 68.770192 83.871822 70.431875 83.837166 72.167969 83.505859 C 75.692809 82.833766 77.721722 80.880142 78.916016 79.921875 C 79.560576 79.404688 79.653664 79.329686 79.648438 79.316406 C 79.692837 79.327073 79.707084 79.319036 79.771484 79.345703 C 80.218098 79.53081 80.741782 79.82389 81.478516 80.091797 C 82.215249 80.359704 83.16645 80.60152 84.470703 80.689453 L 84.470703 80.693359 C 86.556503 80.833386 88.388702 80.553745 89.978516 80.140625 C 91.567116 79.727812 92.912337 79.18187 94.029297 78.779297 L 94.033203 78.775391 C 94.977523 78.436057 96.560435 78.009106 98.417969 77.132812 C 98.756195 77.402119 99.044318 77.740608 99.398438 77.986328 C 101.73137 79.605101 104.38813 80.716474 107.11719 81.365234 C 109.84624 82.013994 112.78265 82.203455 115.65234 81.734375 C 115.72928 81.722375 115.80207 81.683389 115.87891 81.669922 C 115.96704 81.793122 116.02208 81.961998 116.11328 82.080078 C 116.76417 82.922851 117.48866 83.636747 118.21094 84.25 C 121.10004 86.70304 124.19251 87.865719 126.58594 88.632812 C 127.78746 89.017306 128.93401 89.241122 130.00586 89.359375 C 131.0777 89.477642 132.07594 89.491525 132.98242 89.453125 C 134.79538 89.376458 136.24242 89.094308 137.17969 89.048828 C 139.05421 88.957895 138.15453 88.310771 139.19727 89.833984 C 140.1076 91.163478 141.14406 92.673098 142.3457 94.203125 C 144.74897 97.263178 147.81344 100.39936 151.8418 102.30664 C 152.84889 102.78345 153.91623 103.18338 155.04883 103.48633 C 156.18144 103.78929 157.37879 103.99565 158.64648 104.08398 C 163.38331 104.41441 166.99646 102.73357 169.70312 101.71289 C 172.40982 100.69221 174.04382 100.34961 174.9082 100.51562 C 175.81324 100.68969 177.76089 101.75907 180.07031 103.54102 C 181.22503 104.43199 182.44523 105.46155 183.81445 106.48633 C 185.18368 107.51111 186.70153 108.53192 188.45312 109.40039 C 190.20258 110.26784 192.01308 111.05277 193.875 111.72461 C 195.73692 112.39645 197.64947 112.95477 199.60938 113.375 C 201.56925 113.79521 203.57575 114.0749 205.61914 114.1875 C 207.66166 114.30003 209.74206 114.24497 211.85352 113.99414 L 211.85742 113.99414 C 213.86504 113.75575 215.75329 113.33638 217.53125 112.75586 C 219.31 112.17509 220.97876 111.43365 222.54883 110.55664 C 224.34463 109.55352 226.0065 108.36688 227.55859 107.04102 L 227.55859 100.28125 L 227.55859 91.515625 L 227.55859 0 L 133.36719 0 L 100.99414 0 L 90.117188 0 z "
         transform="matrix(0.75000002,0,0,-0.75000002,112.79088,283.46)" /></g><g
       id="g74"
       style="display:inline"><g
         id="g76"
         clip-path="url(#clipPath80)"><g
           id="g82"
           transform="translate(186.1862,256.8477)"><path
             d="M 0,0 C 0.961,-0.131 1.407,0.218 1.466,1.117 1.479,1.312 1.475,1.512 1.453,1.707 1.353,2.608 0.907,2.9 0,2.658 Z m 0.002,-5.608 c 0.179,0 0.312,-0.005 0.446,10e-4 0.719,0.03 1.014,0.275 1.079,0.991 0.04,0.45 0.002,0.908 -0.014,1.361 -0.033,0.86 -0.804,1.074 -1.511,0.819 z m 23.079,8.431 v -10.66 h -2.577 v 10.77 l -0.033,2.105 h 2.589 c 0,-0.575 0.002,-0.913 0.022,-1.737 z M 19.338,3.12 V 1.326 h -2.474 c -0.024,0.228 -0.043,0.446 -0.07,0.663 -0.021,0.157 -0.036,0.319 -0.083,0.47 -0.113,0.364 -0.4,0.567 -0.742,0.545 -0.338,-0.021 -0.615,-0.261 -0.671,-0.631 -0.09,-0.595 -0.023,-1.174 0.417,-1.622 0.413,-0.421 0.874,-0.794 1.308,-1.194 0.463,-0.425 0.936,-0.839 1.375,-1.287 0.696,-0.71 1.034,-1.586 1.03,-2.574 -0.002,-0.588 -0.009,-1.189 -0.133,-1.759 -0.268,-1.238 -1.003,-1.877 -2.261,-1.951 -0.793,-0.047 -1.602,-0.031 -2.388,0.076 -1.228,0.167 -1.803,0.754 -2,1.978 -0.103,0.645 -0.09,1.31 -0.132,1.994 h 2.699 c 0,-0.352 -0.014,-0.694 0.004,-1.034 0.024,-0.479 0.276,-0.78 0.649,-0.814 0.467,-0.041 0.776,0.193 0.844,0.682 0.111,0.799 -0.027,1.526 -0.684,2.075 -0.576,0.482 -1.156,0.96 -1.735,1.44 C 13.401,-0.878 12.737,0 12.604,1.189 12.513,1.99 12.533,2.788 12.82,3.654 l 0.116,0.266 c 0.418,0.783 1.101,1.143 1.932,1.265 0.908,0.133 1.816,0.111 2.713,-0.113 0.851,-0.212 1.496,-0.723 1.706,-1.588 z m 19.878,1.934 h 2.549 v -7.865 c 0.028,-0.007 0.055,-0.014 0.083,-0.021 0.033,0.064 0.077,0.124 0.097,0.191 0.397,1.268 0.798,2.534 1.178,3.806 0.082,0.275 0.207,0.36 0.489,0.35 0.66,-0.023 1.323,-0.007 2.028,-0.007 -0.324,-1.057 -0.575,-2.089 -0.955,-3.07 -0.378,-0.971 -0.373,-1.865 0.003,-2.837 0.43,-1.109 0.729,-2.267 1.103,-3.464 -0.836,0 -1.63,-0.01 -2.423,0.014 -0.082,0.002 -0.192,0.192 -0.231,0.314 -0.395,1.229 -0.777,2.463 -1.164,3.695 -0.027,0.086 -0.067,0.168 -0.177,0.24 V -7.841 H 39.222 V -7.384 3.71 c 0,0.099 0.002,0.198 -0.001,0.296 z M 3.72,3.919 C 4.246,2.783 4.248,1.607 3.951,0.418 3.8,-0.19 3.397,-0.614 2.821,-0.869 2.699,-0.922 2.578,-0.979 2.412,-1.055 2.49,-1.105 2.53,-1.145 2.578,-1.16 3.549,-1.449 3.993,-2.152 4.14,-3.109 4.275,-4.006 4.284,-4.901 4.107,-5.79 3.853,-7.069 3.165,-7.757 1.843,-7.829 0.369,-7.91 -1.111,-7.848 -2.617,-7.848 V 5.006 C -2.59,5.025 -2.571,5.049 -2.552,5.049 -1.037,5.032 0.478,5.04 1.99,4.979 2.237,4.968 2.763,5.003 3.199,4.665 3.397,4.511 3.517,4.331 3.584,4.208 3.637,4.098 3.682,4.016 3.72,3.919"
             style="fill:#c32030;fill-opacity:1;fill-rule:nonzero;stroke:none"
             id="path84" /></g><g
           id="g86"
           transform="translate(195.5466,254.9371)"><path
             d="M 0,0 C -0.064,0.472 -0.092,0.885 -0.186,1.283 -0.263,1.612 -0.537,1.747 -0.868,1.715 -1.22,1.682 -1.43,1.476 -1.468,1.124 -1.5,0.832 -1.521,0.536 -1.509,0.243 -1.505,0.159 -1.369,0.016 -1.286,0.011 -0.896,-0.014 -0.503,0 0,0 m 2.249,-1.74 c -1.156,0 -2.251,-0.013 -3.346,0.008 -0.343,0.007 -0.461,-0.097 -0.43,-0.435 0.036,-0.416 0.02,-0.837 0.062,-1.252 0.044,-0.435 0.3,-0.682 0.643,-0.681 0.367,10e-4 0.57,0.215 0.64,0.671 0.019,0.122 0.038,0.243 0.053,0.366 0.014,0.119 0.021,0.239 0.032,0.377 H 2.232 C 2.239,-3.48 2.281,-4.254 1.91,-4.971 1.619,-5.532 1.131,-5.864 0.533,-6.001 c -0.872,-0.201 -1.76,-0.222 -2.638,-0.044 -1.159,0.233 -1.888,1.025 -1.919,2.206 -0.047,1.747 -0.045,3.498 -0.003,5.246 C -4,2.527 -3.282,3.359 -2.2,3.645 -1.214,3.905 -0.226,3.879 0.738,3.522 1.568,3.215 2.094,2.646 2.195,1.742 2.228,1.449 2.244,1.153 2.247,0.858 2.254,0.01 2.249,-0.838 2.249,-1.74"
             style="fill:#c32030;fill-opacity:1;fill-rule:nonzero;stroke:none"
             id="path88" /></g><g
           id="g90"
           transform="translate(214.153,253.3721)"><path
             d="m 0,0 c -1.104,-0.382 -1.351,-0.84 -1.165,-2.057 0.049,-0.319 0.244,-0.55 0.596,-0.539 0.347,0.011 0.55,0.241 0.562,0.568 C 0.018,-1.357 0,-0.686 0,0 m -1.348,1.991 h -2.279 c 0.088,0.663 0.11,1.318 0.284,1.929 0.085,0.299 0.405,0.609 0.699,0.756 1.235,0.622 2.526,0.682 3.823,0.184 C 2.02,4.538 2.395,3.86 2.484,3.004 2.523,2.637 2.534,2.267 2.536,1.898 2.543,0.715 2.532,-0.468 2.541,-1.651 2.547,-2.559 2.443,-3.477 2.829,-4.39 2.033,-4.39 1.284,-4.398 0.537,-4.379 0.453,-4.376 0.328,-4.235 0.3,-4.136 0.236,-3.916 0.222,-3.681 0.179,-3.396 0.112,-3.493 0.066,-3.545 0.037,-3.605 -0.406,-4.501 -1.026,-4.756 -2.43,-4.521 c -0.821,0.138 -1.291,0.707 -1.355,1.694 -0.048,0.734 -0.036,1.476 0.015,2.209 0.06,0.834 0.569,1.374 1.327,1.667 0.572,0.222 1.169,0.382 1.743,0.598 0.635,0.239 0.846,0.582 0.777,1.175 C 0.03,3.226 -0.183,3.445 -0.553,3.468 -0.934,3.491 -1.206,3.286 -1.275,2.881 -1.324,2.595 -1.324,2.302 -1.348,1.991"
             style="fill:#c32030;fill-opacity:1;fill-rule:nonzero;stroke:none"
             id="path92" /></g><g
           id="g94"
           transform="translate(221.8503,252.7549)"><path
             d="M 0,0 C 0.748,0 1.461,0.005 2.173,-0.009 2.244,-0.01 2.378,-0.131 2.374,-0.19 2.332,-0.949 2.335,-1.719 2.197,-2.462 2.045,-3.288 1.371,-3.646 0.617,-3.834 c -0.852,-0.213 -1.711,-0.17 -2.561,0.022 -1.065,0.24 -1.724,0.916 -1.764,1.997 -0.07,1.894 -0.113,3.795 -0.025,5.687 0.061,1.311 0.723,1.916 2.038,2.055 0.751,0.079 1.532,0.052 2.28,-0.06 C 1.711,5.699 2.238,5.062 2.341,3.912 2.385,3.423 2.374,2.928 2.385,2.436 2.386,2.377 2.367,2.317 2.355,2.239 h -2.373 c 0,0.265 0.009,0.52 -0.003,0.774 C -0.03,3.196 -0.02,3.407 -0.107,3.551 -0.203,3.708 -0.396,3.886 -0.56,3.901 -0.726,3.916 -0.956,3.782 -1.07,3.641 -1.183,3.503 -1.225,3.276 -1.227,3.087 -1.238,1.694 -1.233,0.302 -1.229,-1.091 c 0,-0.122 0.016,-0.248 0.049,-0.365 0.076,-0.264 0.248,-0.424 0.534,-0.423 0.291,0.002 0.525,0.128 0.566,0.425 0.052,0.363 0.044,0.734 0.062,1.102 C -0.013,-0.255 -0.008,-0.158 0,0"
             style="fill:#c32030;fill-opacity:1;fill-rule:nonzero;stroke:none"
             id="path96" /></g><g
           id="g98"
           transform="translate(267.0114,251.6158)"><path
             d="M 0,0 C -0.01,0.025 -0.021,0.05 -0.033,0.074 -0.031,0.05 -0.029,0.026 -0.03,0.001 Z"
             style="fill:#1d1d1b;fill-opacity:1;fill-rule:nonzero;stroke:none"
             id="path100" /></g><g
           id="g102"
           transform="translate(256.2741,254.459)"><path
             d="m 0,0 c 0,0.792 -0.616,1.43 -1.386,1.43 h -1.771 v -2.871 h 1.771 C -0.616,-1.441 0,-0.792 0,0 m 1.023,0 c 0,-1.32 -1.078,-2.399 -2.409,-2.399 h -1.771 v -2.915 h -1.024 v 7.702 h 1.024 1.771 C -0.055,2.388 1.023,1.32 1.023,0"
             style="fill:#1d4560;fill-opacity:1;fill-rule:nonzero;stroke:none"
             id="path104" /></g><g
           id="g106"
           transform="translate(262.7917,250.1128)"><path
             d="m 0,0 v -0.968 h -4.071 -0.385 v 7.702 h 1.022 3.378 V 5.766 H -3.434 V 3.4 H -0.33 V 2.442 H -3.434 V 0 Z"
             style="fill:#1d4560;fill-opacity:1;fill-rule:nonzero;stroke:none"
             id="path108" /></g><g
           id="g110"
           transform="translate(269.4489,256.8467)"><path
             d="m 0,0 v -7.702 h -0.825 l -3.488,5.7 v -5.7 H -5.337 V 0 h 0.826 l 3.499,-5.688 V 0 Z"
             style="fill:#1d4560;fill-opacity:1;fill-rule:nonzero;stroke:none"
             id="path112" /></g><g
           id="g114"
           transform="translate(266.9782,251.6895)"><path
             d="m 0,0 c 0.002,-0.023 0.004,-0.048 0.003,-0.073 l 0.03,-0.001 C 0.023,-0.048 0.012,-0.024 0,0"
             style="fill:#1d4560;fill-opacity:1;fill-rule:nonzero;stroke:none"
             id="path116" /></g><g
           id="g118"
           transform="translate(225.3444,230.961)"><path
             d="m 0,0 c -0.473,-0.563 -1.162,-0.937 -1.837,-1.259 -1.21,-0.575 -2.534,-0.914 -3.814,-1.242 -0.216,-0.056 -0.432,-0.111 -0.647,-0.168 -1.646,-0.431 -3.617,-0.908 -5.753,-1.179 -0.246,-0.031 -0.49,-0.068 -0.735,-0.104 -0.566,-0.084 -1.151,-0.171 -1.737,-0.186 -0.792,-0.02 -1.669,0.003 -2.683,0.071 -3.076,0.203 -6.171,1.565 -8.894,2.923 -2.413,1.205 -4.629,2.764 -6.723,4.456 -1.142,0.922 -2.27,1.862 -3.328,2.879 -0.536,0.513 -1.053,1.046 -1.542,1.602 -0.839,0.954 -1.724,1.807 -2.281,2.969 -0.126,0.261 -0.237,0.526 -0.292,0.812 -0.006,0.041 -0.012,0.081 -0.019,0.121 0.037,-0.031 0.076,-0.061 0.112,-0.093 0.089,-0.081 0.168,-0.169 0.254,-0.253 0.673,-0.654 1.44,-1.23 2.246,-1.722 1.713,-1.045 3.58,-1.915 5.39,-2.779 1.854,-0.886 3.752,-1.687 5.709,-2.318 3.285,-1.058 6.174,-1.836 8.832,-2.379 0.364,-0.074 0.73,-0.157 1.085,-0.237 0.332,-0.075 0.664,-0.15 0.999,-0.22 2.537,-0.526 5.088,-0.904 7.796,-1.157 2.523,-0.235 5.021,-0.189 7.636,0.139 C 0.152,0.723 0.254,0.647 0.281,0.598 0.307,0.55 0.332,0.396 0,0 m 16.87,9.643 c 0.341,0.44 0.757,1.199 1.065,1.665 0.213,0.323 0.431,0.555 0.657,0.872 0.127,0.178 0.063,0.042 0.263,0.152 0.37,0.205 0.967,-0.114 1.298,-0.277 0.202,-0.1 0.242,0.255 0.322,0.02 0.087,-0.254 0.106,-0.87 10e-4,-1.101 C 20.367,10.738 20.279,10.485 20.153,10.27 19.69,9.476 19.026,8.786 18.464,8.057 c 0.14,-0.085 0.205,-0.243 0.223,-0.389 0.089,-0.026 0.171,-0.051 0.263,-0.077 0.079,0.443 0.693,1.064 0.891,1.267 0.652,0.667 1.221,1.525 1.507,2.423 0.037,0.117 0.129,0.33 0.165,0.527 0.405,-0.189 0.769,-0.113 1.201,0.01 0.113,0.033 0.224,0.097 0.34,0.121 0.596,0.125 0.973,0.356 1.434,0.752 0.443,0.378 0.959,0.61 1.424,0.951 0.524,0.382 1.15,0.585 1.696,0.928 0.523,0.328 1.395,0.786 1.534,1.466 0.103,0.506 -0.441,0.883 -0.849,1.015 -0.997,0.324 -2.429,0.159 -3.336,-0.338 -0.642,-0.352 -1.157,-1.08 -1.94,-1.026 -0.105,0.037 -0.186,0.101 -0.303,0.151 -0.41,0.177 -0.843,0.054 -1.2,-0.171 -0.224,-0.141 -0.434,-0.384 -0.702,-0.438 -0.318,-0.062 -0.688,0.097 -1.001,0.123 -0.165,0.013 -0.338,0.042 -0.504,0.031 -0.25,-0.017 -0.278,-0.164 -0.473,-0.25 -0.219,-0.097 -0.551,0.054 -0.759,0.141 -0.235,0.099 -0.453,0.236 -0.671,0.368 -0.257,0.155 -0.554,0.199 -0.808,0.358 -0.134,0.083 -0.285,0.179 -0.451,0.243 -0.258,0.1 -0.431,-0.014 -0.598,-0.123 -0.028,-0.018 -0.058,-0.037 -0.088,-0.056 -0.082,-0.05 -0.169,-0.093 -0.254,-0.135 -0.052,-0.009 -0.106,-0.011 -0.168,-0.002 -0.494,0.072 -0.926,0.407 -1.416,0.532 -0.493,0.125 -0.996,0.151 -1.493,0.076 -0.587,-0.087 -1.154,0.001 -1.826,0.161 -0.437,0.104 -0.85,0.036 -1.28,0.086 -0.301,0.034 -0.709,-0.064 -0.959,0.166 -0.204,0.186 -0.272,0.563 -0.031,0.739 0.192,0.139 0.312,-0.057 0.444,-0.178 0.19,-0.176 0.405,-0.329 0.66,-0.391 0.317,-0.078 0.593,0.044 0.886,0.158 0.058,0.022 0.116,0.044 0.174,0.064 0.133,0.045 0.235,0.111 0.332,0.174 0.051,0.032 0.105,0.067 0.162,0.098 0.078,0.041 0.164,0.077 0.247,0.112 l 0.018,0.008 c 0.039,0.016 0.077,0.032 0.114,0.049 l 0.029,0.012 c 0.091,0.039 0.207,0.088 0.209,0.197 10e-4,0.067 -0.043,0.121 -0.131,0.162 -0.101,0.048 -0.218,0.045 -0.322,0.044 l -0.221,-0.001 c -0.323,-0.002 -0.65,0 -0.966,0.075 -0.249,0.059 -0.414,0.24 -0.587,0.432 -0.373,0.412 -0.632,0.919 -0.69,1.478 -0.027,0.254 -0.11,0.715 0.102,0.92 0.146,0.142 0.305,0.068 0.48,0.026 0.331,-0.079 0.642,-0.121 0.838,0.219 0.194,0.337 0.018,0.612 -0.199,0.883 C 9.277,22.643 8.813,22.912 8.619,23.43 8.552,23.608 8.536,23.838 8.398,23.985 8.01,24.398 7.691,23.297 7.601,23.031 7.437,22.556 7.346,22.053 7.271,21.618 7.188,21.126 7.187,20.574 7.27,19.93 7.314,19.575 7.432,19.23 7.546,18.896 7.588,18.771 7.632,18.643 7.671,18.517 7.677,18.496 7.684,18.475 7.691,18.454 7.57,18.397 7.469,18.307 7.377,18.226 7.065,17.949 7.062,17.553 7.061,17.202 7.061,17.152 7.06,17.104 7.059,17.055 7.055,16.85 7.12,16.666 7.27,16.463 c -0.808,0.137 -1.482,0.2 -2.117,0.2 -0.885,0 -1.73,-0.151 -2.664,-0.334 -0.222,-0.043 -1.68,-0.424 -2.025,-0.804 -0.102,-0.112 -0.107,-0.224 0.045,-0.328 0.557,-0.38 1.478,-0.072 2.069,0.011 0.826,0.113 1.672,0.189 2.505,0.234 0.505,0.028 0.984,-0.173 1.475,-0.259 0.483,-0.084 0.94,-0.062 1.424,-0.088 0.345,-0.018 0.29,-0.053 0.536,-0.28 0.475,-0.442 1.156,-0.467 1.755,-0.586 0.835,-0.167 1.599,-0.207 2.448,-0.253 0.867,-0.048 1.768,-0.284 2.628,-0.411 0.717,-0.105 1.392,-0.451 2.104,-0.543 0.284,-0.036 0.565,-0.06 0.844,-0.086 C 18.233,12.844 18.184,12.75 18.144,12.67 18.118,12.62 18.096,12.569 18.065,12.528 17.884,12.272 17.712,12.012 17.54,11.751 L 17.233,11.283 C 16.962,10.868 16.692,10.48 16.4,10.114 16.044,10.146 15.64,9.995 15.394,9.789 14.996,9.456 14.712,8.863 14.684,8.344 14.658,8.316 14.631,8.291 14.606,8.263 14.181,8.253 13.748,8.199 13.347,8.055 12.541,7.767 11.704,7.617 10.894,7.337 10.23,7.108 9.56,7.031 8.857,7.009 7.504,6.967 6.189,7.703 5.078,8.37 3.92,9.066 2.834,9.737 1.524,10.184 0.616,10.495 -0.305,10.736 -1.268,10.745 -2.124,10.752 -2.91,10.826 -3.764,10.738 -4.662,10.646 -5.415,10.365 -6.265,10.053 -7.011,9.779 -7.593,9.372 -8.405,9.455 -8.794,9.494 -9.63,9.429 -9.346,8.874 -9.075,8.348 -8.144,8.219 -7.644,8.353 -7.119,8.494 -6.608,8.716 -6.11,8.935 -5.711,9.109 -5.3,9.27 -4.872,9.359 -4.436,9.45 -4.02,9.381 -3.576,9.375 -3.41,9.373 -3.237,9.37 -3.071,9.359 -1.468,9.255 0.09,9.11 1.524,8.487 1.624,8.444 1.728,8.412 1.835,8.378 1.884,8.363 1.932,8.348 1.979,8.332 2.532,8.143 3.241,7.862 3.819,7.358 4.139,7.079 4.491,6.783 4.93,6.427 5.673,5.823 6.551,5.473 7.539,5.387 c 0.535,-0.046 1.119,-0.043 1.84,0.01 1.279,0.093 2.68,0.373 3.746,1.09 0.146,0.098 0.283,0.18 0.419,0.252 0.148,-0.888 1.406,-1.344 2.109,-1.393 0.066,-0.004 0.133,-0.008 0.204,-0.008 0.156,0 0.322,0.017 0.486,0.074 0.22,0.078 0.429,0.19 0.629,0.32 C 17.084,5.635 17.108,5.516 16.913,5.371 16.469,5.042 15.969,4.924 15.454,4.775 14.761,4.575 14.062,4.398 13.361,4.227 L 13.159,4.177 C 12.553,4.028 11.934,3.89 11.322,3.754 11.086,3.702 10.851,3.649 10.615,3.596 L 10.473,3.563 C 10.119,3.483 9.754,3.4 9.394,3.325 9.269,3.298 9.141,3.276 9.014,3.253 8.836,3.222 8.652,3.189 8.472,3.146 7.997,3.03 7.515,2.908 7.05,2.791 L 7.008,2.78 C 6.457,2.642 5.889,2.499 5.329,2.364 5.03,2.292 4.723,2.23 4.424,2.17 4.186,2.123 3.939,2.073 3.697,2.019 2.04,1.645 0.354,1.527 -1.221,1.457 c -3.534,-0.16 -6.504,-0.164 -9.501,0.332 -3.555,0.588 -7.091,1.308 -10.573,2.246 -2.852,0.769 -6.05,1.404 -8.725,2.674 -1.167,0.554 -2.332,1.116 -3.481,1.706 -1.491,0.764 -3.039,1.481 -4.403,2.46 -0.392,0.28 -0.764,0.621 -1.127,0.937 -1.562,1.362 -3.027,2.797 -4.588,4.16 -0.527,0.459 -1.026,0.962 -1.518,1.453 -0.252,0.25 -0.774,1.013 -1.179,0.918 -0.31,-0.072 1.033,-1.572 1.145,-1.679 0.578,-0.55 1.029,-1.22 1.617,-1.758 0.879,-0.806 1.764,-1.573 2.575,-2.44 0.017,-0.169 0.061,-0.329 0.068,-0.499 0.01,-0.238 0.059,-0.473 0.156,-0.691 0.129,-0.291 0.223,-0.596 0.365,-0.884 0.289,-0.586 0.681,-1.113 1.081,-1.627 0.512,-0.656 1.032,-1.274 1.541,-1.93 0.447,-0.573 0.949,-1.007 1.463,-1.506 1.143,-1.109 2.402,-2.084 3.62,-3.106 2.562,-2.148 5.997,-4.254 9.138,-5.4 2.011,-0.732 3.853,-1.219 5.633,-1.487 0.739,-0.11 1.462,-0.155 2.176,-0.155 1.205,0 2.385,0.127 3.577,0.273 3.011,0.369 5.17,0.838 7.22,1.568 0.413,0.147 0.836,0.283 1.283,0.426 1.5,0.481 3.053,0.977 4.241,1.942 0.164,0.132 0.297,0.27 0.415,0.391 0.361,0.372 0.58,0.596 1.201,0.311 0.272,-0.125 0.509,-0.256 0.739,-0.382 0.481,-0.266 0.936,-0.516 1.582,-0.634 0.171,-0.031 0.343,-0.063 0.514,-0.095 0.885,-0.165 1.72,-0.321 2.613,-0.379 3.35,-0.216 6.827,0.205 10.943,1.327 1.135,0.309 2.319,0.696 3.73,1.218 1.953,0.723 3.86,1.602 5.667,2.612 1.106,0.618 2.205,1.299 3.269,2.022 2.262,1.538 4.104,3.201 5.636,5.084 0.587,0.722 1.125,1.488 1.566,2.309 0.266,0.493 0.473,1.014 0.651,1.545 0.115,0.344 0.3,0.695 0.323,1.062 0.011,0.203 -0.013,0.368 -0.25,0.274 C 39.074,16.012 39.01,15.92 38.968,15.814 38.924,15.703 38.906,15.576 38.893,15.471 38.837,15.055 38.687,14.711 38.519,14.32 38.22,13.632 37.861,12.97 37.442,12.348 36.441,10.866 35.144,9.505 33.356,8.066 31.256,6.375 28.924,4.923 26.225,3.626 24.177,2.642 22.09,1.82 20.021,1.185 18.298,0.655 16.685,0.262 15.088,-0.017 12.278,-0.509 9.762,-0.635 7.395,-0.404 5.636,-0.232 4.174,0.131 2.926,0.706 2.825,0.752 2.726,0.804 2.628,0.854 2.67,0.867 2.713,0.879 2.757,0.893 2.945,0.949 3.14,1.007 3.331,1.042 c 0.37,0.067 0.747,0.127 1.112,0.187 0.378,0.06 0.807,0.129 1.219,0.206 0.683,0.126 1.285,0.257 1.843,0.399 0.749,0.19 1.501,0.393 2.227,0.589 l 0.09,0.024 c 0.364,0.098 0.727,0.196 1.091,0.292 0.37,0.098 0.74,0.195 1.111,0.292 l 0.021,0.005 c 0.536,0.14 1.092,0.285 1.636,0.432 0.661,0.179 1.353,0.376 2.119,0.601 0.665,0.196 1.338,0.404 1.988,0.605 l 0.15,0.047 c 0.198,0.061 0.398,0.126 0.592,0.19 l 0.036,0.011 c 0.146,0.048 0.29,0.095 0.435,0.141 l 0.267,0.083 c 0.878,0.273 1.786,0.556 2.553,1.141 l -0.036,0.006 c -1.182,0.106 -2.395,0.249 -3.541,0.523 -0.093,-0.038 -0.19,-0.06 -0.296,-0.06 -0.135,0 -0.279,0.029 -0.427,0.065 C 17.132,6.432 16.683,6.045 16.182,5.869 16.029,5.816 15.85,5.818 15.687,5.83 c -0.547,0.037 -1.21,0.44 -1.19,1.103 0.006,0.179 0.061,0.239 0.202,0.345 0.279,0.209 0.117,0.379 0.351,0.649 0.033,0.038 0.098,0.095 0.133,0.132 z"
             style="fill:#1d4560;fill-opacity:1;fill-rule:nonzero;stroke:none"
             id="path120" /></g><g
           id="g122"
           transform="translate(252.3454,242.4478)"><path
             d="m 0,0 c -0.662,-0.431 -1.434,-0.542 -2.102,-0.93 -0.666,-0.387 -1.093,-1.069 -1.823,-1.38 -0.786,-0.336 -1.34,-0.821 -2.031,-1.294 -0.201,-0.137 -0.487,-0.364 -0.795,-0.537 0.817,-0.169 1.672,-0.303 2.539,-0.39 0.321,0.233 0.65,0.431 0.995,0.631 0.3,0.172 0.593,0.325 0.858,0.548 0.362,0.304 0.755,0.581 1.184,0.785 0.344,0.164 0.721,0.219 1.075,0.352 0.969,0.362 1.704,1.048 2.473,1.695 0.794,0.667 1.613,1.3 2.388,1.991 0.675,0.602 1.311,1.195 1.881,1.89 C 6.799,3.554 7.205,4.013 7.023,4.284 6.87,4.512 6.208,4.368 5.988,4.295 5.518,4.14 5.191,3.924 4.827,3.603 3.952,2.831 2.953,2.198 2.022,1.494 1.359,0.992 0.695,0.452 0,0"
             style="fill:#1d4560;fill-opacity:1;fill-rule:nonzero;stroke:none"
             id="path124" /></g><g
           id="g126"
           transform="translate(210.8689,246.7217)"><path
             d="M 0,0 C 0.429,-0.245 0.896,-0.383 1.346,-0.58 2.18,-0.943 2.913,-1.406 3.568,-2.044 L 3.636,-2.11 c 0.236,-0.229 0.481,-0.466 0.371,-0.798 -0.03,-0.088 -0.023,-0.175 0.02,-0.244 0.043,-0.071 0.118,-0.116 0.214,-0.13 0.022,-0.003 0.04,-0.005 0.058,-0.005 0.189,0 0.267,0.153 0.31,0.268 0.314,0.843 -0.453,1.389 -1.125,1.793 0.669,-0.322 1.305,-0.611 1.954,-0.872 0.595,-0.239 1.16,-0.355 1.725,-0.355 0.265,0 0.533,0.026 0.797,0.079 0.226,0.045 0.459,0.075 0.691,0.105 0.101,0.013 0.202,0.026 0.302,0.04 0.179,0.026 0.361,0.048 0.541,0.07 0.389,0.047 0.79,0.096 1.18,0.182 0.844,0.188 1.692,0.407 2.512,0.619 0.193,0.05 0.395,0.087 0.585,0.15 0.256,0.085 0.593,0.186 0.742,0.432 0.285,0.473 -0.841,0.387 -1.038,0.362 -0.578,-0.074 -1.171,-0.149 -1.75,-0.192 -0.523,-0.04 -1.068,-0.072 -1.577,-0.208 C 9.924,-0.874 9.702,-0.875 9.472,-0.915 9.227,-0.958 8.984,-1.026 8.735,-1.043 8.44,-1.063 8.148,-1.135 7.854,-1.146 7.261,-1.17 6.631,-1.068 6.065,-0.893 5.435,-0.698 4.789,-0.492 4.176,-0.25 3.557,-0.006 2.91,0.064 2.271,0.233 2.027,0.297 1.778,0.364 1.527,0.395 1.143,0.441 0.793,0.524 0.417,0.605 0.249,0.641 0.086,0.658 -0.078,0.658 c -0.018,0 -0.03,0.001 -0.057,0.001 h -0.018 c -0.163,0.004 -0.519,0.043 -0.42,-0.243 0.058,-0.17 0.332,-0.274 0.476,-0.36 z"
             style="fill:#1d4560;fill-opacity:1;fill-rule:nonzero;stroke:none"
             id="path128" /></g><g
           id="g130"
           transform="translate(207.6521,244.19)"><path
             d="m 0,0 c 0.043,-0.012 0.076,-0.021 0.095,-0.028 0.191,-0.07 0.394,-0.125 0.574,-0.175 l 0.016,-0.004 c 0.1,-0.028 0.2,-0.056 0.299,-0.085 0.752,-0.228 1.537,-0.397 2.295,-0.561 l 0.014,-0.003 c 0.34,-0.073 0.691,-0.149 1.032,-0.229 0.317,-0.074 0.64,-0.141 0.955,-0.207 0.161,-0.033 0.323,-0.067 0.484,-0.101 0.476,-0.103 0.785,-0.261 1.03,-0.53 0.102,-0.113 0.082,-0.269 0.06,-0.435 C 6.843,-2.443 6.831,-2.53 6.837,-2.613 6.85,-2.77 6.909,-2.926 6.965,-3.058 6.973,-3.076 7,-3.125 7.055,-3.223 L 7.072,-3.255 C 7.103,-3.31 7.136,-3.37 7.155,-3.405 6.913,-3.71 6.695,-4.19 7.113,-4.453 c 0.139,-0.087 0.336,-0.171 0.505,-0.15 0.215,0.025 0.237,0.257 0.314,0.423 0.092,0.204 0.123,0.351 0.041,0.57 -0.076,0.201 -0.17,0.399 -0.236,0.605 -0.077,0.244 -0.074,0.551 -0.041,0.807 0.036,0.28 0.381,0.981 -0.05,1.12 C 7.424,-1.007 7.187,-1.168 6.961,-1.11 6.669,-1.036 6.37,-0.884 6.092,-0.766 5.729,-0.613 5.343,-0.521 4.979,-0.366 4.51,-0.167 3.972,-0.047 3.47,0.051 3.135,0.117 2.8,0.217 2.46,0.265 2.28,0.291 2.099,0.315 1.917,0.34 L 1.867,0.347 C 1.426,0.407 0.97,0.469 0.525,0.542 0.117,0.609 -0.581,0.698 -0.68,0.544 -0.693,0.524 -0.702,0.503 -0.708,0.481 -0.778,0.217 -0.291,0.082 0,0"
             style="fill:#1d4560;fill-opacity:1;fill-rule:nonzero;stroke:none"
             id="path132" /></g><g
           id="g134"
           transform="translate(233.9626,256.1529)"><path
             d="m 0,0 c -0.027,-0.116 -0.038,-0.228 -0.023,-0.33 0.051,-0.35 0.285,-0.603 0.643,-0.562 0.474,0.055 0.829,0.427 1.113,0.776 0.254,0.313 0.525,0.791 0.958,0.876 0.163,0.032 0.351,-0.042 0.512,0 0.193,0.051 0.364,0.265 0.43,0.447 0.101,0.28 0.033,0.588 0.147,0.877 0.296,0.747 0.881,1.189 1.548,1.576 0.508,0.295 1.071,0.478 1.643,0.609 0.595,0.136 1.207,0.127 1.807,0.266 0.583,0.134 1.039,0.445 1.581,0.673 0.932,0.393 1.736,0.253 2.696,0.074 0.287,-0.053 0.73,-0.211 0.895,0.114 0.309,0.609 -0.833,0.782 -1.156,0.91 -0.12,0.048 -0.24,0.096 -0.36,0.14 l -0.027,0.01 c -0.094,0.035 -0.19,0.07 -0.295,0.085 L 11.778,6.588 C 11.203,6.67 10.608,6.754 10.019,6.818 9.779,6.844 9.526,6.797 9.321,6.76 9.117,6.723 8.912,6.677 8.707,6.631 8.391,6.561 8.063,6.488 7.74,6.449 6.438,6.295 5.35,5.651 4.456,5.041 3.547,4.42 2.809,3.781 2.199,3.087 2.077,2.947 1.939,2.815 1.801,2.682 1.283,2.188 0.935,1.625 0.532,1.037 0.356,0.78 0.09,0.37 0,0"
             style="fill:#1d4560;fill-opacity:1;fill-rule:nonzero;stroke:none"
             id="path136" /></g><g
           id="g138"
           transform="translate(216.9499,241.9024)"><path
             d="m 0,0 c 0.025,0.14 0.011,0.246 -0.044,0.314 -0.04,0.051 -0.101,0.077 -0.172,0.073 -0.118,-0.011 -0.243,-0.114 -0.328,-0.27 -0.195,-0.357 -0.094,-0.592 0.024,-0.726 0.086,-0.096 0.195,-0.143 0.325,-0.143 0.119,0 0.24,0.039 0.355,0.077 0.344,0.113 0.658,0.317 0.907,0.591 0.204,0.224 0.451,0.334 0.822,0.37 0.507,0.047 0.986,0.164 1.424,0.346 0.233,0.097 0.443,0.216 0.655,0.339 0.15,0.088 0.254,0.196 0.364,0.31 0.029,0.03 0.059,0.06 0.089,0.091 L 4.447,1.397 C 4.555,1.5 4.754,1.691 4.66,1.852 L 4.625,1.911 4.558,1.898 C 4.403,1.869 4.271,1.729 4.165,1.618 L 4.126,1.578 C 3.926,1.372 3.704,1.263 3.468,1.148 3.376,1.104 3.281,1.058 3.184,1.004 2.768,0.777 2.313,0.662 1.796,0.65 1.451,0.643 1.149,0.532 0.847,0.302 0.703,0.193 0.545,0.102 0.395,0.017 0.357,-0.004 0.321,-0.029 0.282,-0.055 0.213,-0.103 0.141,-0.151 0.075,-0.166 0.01,-0.18 -0.021,-0.178 -0.026,-0.182 c -0.004,0.026 0.009,0.095 0.018,0.142 z"
             style="fill:#1d4560;fill-opacity:1;fill-rule:nonzero;stroke:none"
             id="path140" /></g><g
           id="g142"
           transform="translate(205.8444,244.6709)"><path
             d="M 0,0 C 0.216,-0.072 0.481,-0.052 0.642,0.066 0.926,0.276 0.885,0.771 0.622,0.981 0.412,1.149 0.02,1.214 -0.212,1.059 -0.481,0.878 -0.434,0.505 -0.311,0.249 -0.254,0.129 -0.137,0.046 0,0"
             style="fill:#1d4560;fill-opacity:1;fill-rule:nonzero;stroke:none"
             id="path144" /></g><g
           id="g146"
           transform="translate(217.3737,242.5035)"><path
             d="m 0,0 c 0.015,-0.006 0.031,-0.01 0.049,-0.01 0.039,0 0.076,0.016 0.104,0.031 0.081,0.04 0.147,0.101 0.211,0.159 0.032,0.029 0.063,0.057 0.093,0.081 l 0.012,0.01 C 0.529,0.322 0.553,0.384 0.531,0.437 0.521,0.461 0.484,0.517 0.376,0.506 0.251,0.496 0.033,0.433 -0.056,0.3 -0.096,0.239 -0.104,0.168 -0.081,0.098 -0.064,0.048 -0.038,0.016 0,0"
             style="fill:#1d4560;fill-opacity:1;fill-rule:nonzero;stroke:none"
             id="path148" /></g><g
           id="g150"
           transform="translate(208.7106,247.4937)"><path
             d="M 0,0 C 0.172,-0.443 0.594,-0.806 0.988,-0.378 1.236,-0.109 1.235,0.296 0.996,0.563 0.867,0.708 0.7,0.829 0.507,0.863 -0.096,0.968 -0.173,0.443 0,0"
             style="fill:#1d4560;fill-opacity:1;fill-rule:nonzero;stroke:none"
             id="path152" /></g><g
           id="g154"
           transform="translate(249.5769,259.9048)"><path
             d="M 0,0 C 0.053,-0.215 0.52,-0.46 0.669,-0.709 0.807,-0.939 0.839,-1.203 0.974,-1.436 1.34,-2.065 2.689,-2.513 3.324,-2.097 4.464,-1.351 1.041,0.905 0.53,1.073 0.059,1.229 -0.477,1.325 -0.402,0.667 -0.374,0.418 -0.012,0.057 0,0"
             style="fill:#1d4560;fill-opacity:1;fill-rule:nonzero;stroke:none"
             id="path156" /></g><g
           id="g158"
           transform="translate(250.6403,254.5435)"><path
             d="M 0,0 C -0.114,0.571 -0.27,0.93 -0.593,1.374 -1.002,1.936 -1.342,2.571 -1.846,3.06 -2.302,3.503 -2.897,3.761 -3.383,4.166 -3.845,4.551 -4.437,4.801 -5.018,4.551 -5.47,4.357 -5.728,4.058 -6.252,4.088 -7.013,4.131 -7.549,4.144 -8.301,3.886 -8.549,3.801 -8.774,3.684 -8.973,3.581 -9.149,3.489 -9.317,3.402 -9.462,3.356 -9.98,3.196 -10.217,2.9 -10.552,2.512 -10.92,2.085 -11.498,1.868 -11.819,1.4 -12.007,1.126 -11.97,0.819 -11.911,0.508 c -0.389,-0.93 -0.422,-1.975 0.003,-2.925 0.312,-0.699 0.494,-1.107 0.456,-1.872 -0.027,-0.553 -0.082,-1.152 0.465,-1.453 0.364,-0.201 0.791,-0.238 1.186,-0.345 0.429,-0.115 0.615,-0.322 0.959,-0.541 0.749,-0.479 1.97,-0.546 2.833,-0.543 0.39,0.001 0.964,-0.191 1.155,0.247 0.17,0.387 -0.109,0.65 -0.397,0.896 -0.694,0.595 -1.669,0.825 -2.436,1.32 -0.511,0.33 -1.001,0.73 -1.361,1.226 -0.179,0.246 -0.242,0.462 -0.34,0.736 -0.096,0.271 -0.293,0.521 -0.327,0.812 -0.048,0.413 0.05,0.492 0.301,0.756 0.508,0.532 -0.002,1.165 0.415,1.698 0.474,0.603 1.447,1.124 2.195,1.28 0.363,0.075 0.921,0.065 1.164,-0.276 0.046,-0.064 -0.031,-0.174 0.026,-0.24 0.095,-0.107 0.291,-0.138 0.423,-0.167 0.346,-0.077 0.695,-0.113 1.031,-0.24 0.916,-0.346 1.299,-0.855 1.382,-1.84 0.061,-0.727 -0.04,-1.607 -0.762,-1.972 -0.602,-0.305 -1.248,-0.058 -1.504,0.564 -0.16,0.388 0.193,0.717 0.27,1.079 0.081,0.388 -0.062,0.546 -0.471,0.5 -0.528,-0.06 -1.143,-0.574 -1.285,-1.079 -0.495,-1.75 1.931,-3.518 3.506,-2.921 0.032,0.012 0.063,0.029 0.094,0.042 0.185,-0.148 0.407,-0.25 0.665,-0.268 0.028,-0.002 0.053,-0.003 0.079,-0.003 0.622,0 0.939,0.51 1.079,0.732 0.022,0.037 0.044,0.073 0.067,0.105 C -0.061,-2.856 0.29,-1.448 0,0"
             style="fill:#1d4560;fill-opacity:1;fill-rule:nonzero;stroke:none"
             id="path160" /></g><g
           id="g162"
           transform="translate(268.0661,262.043)"><path
             d="m 0,0 c 0.402,0.544 0.801,1.105 1.187,1.647 l 0.156,0.219 c 0.101,0.143 0.201,0.289 0.299,0.431 l 0.024,0.036 c 0.14,0.206 0.285,0.417 0.436,0.621 0.292,0.393 0.592,0.79 0.886,1.175 L 3.036,4.193 C 3.193,4.399 3.33,4.638 3.495,4.831 3.558,4.905 3.622,4.979 3.675,5.062 3.777,5.221 3.887,5.374 3.983,5.539 4.146,5.818 4.341,6.076 4.507,6.355 4.596,6.506 4.727,6.628 4.793,6.794 4.871,6.986 4.751,7.118 4.574,6.973 4.433,6.856 4.348,6.683 4.234,6.539 4.008,6.252 3.792,5.962 3.569,5.671 3.363,5.402 3.157,5.132 2.951,4.863 2.913,4.813 2.875,4.764 2.837,4.713 2.498,4.271 2.147,3.813 1.807,3.36 1.722,3.248 1.641,3.13 1.561,3.013 1.489,2.908 1.415,2.8 1.339,2.697 1.157,2.454 0.97,2.208 0.78,1.96 0.448,1.526 0.104,1.077 -0.216,0.623 -0.648,0.01 -1.067,-0.614 -1.511,-1.218 -1.888,-1.732 -2.347,-2.156 -2.76,-2.641 c -0.354,-0.416 -0.741,-0.803 -0.485,-1.365 0.432,0.04 0.774,0.509 1.005,0.839 0.738,1.06 1.473,2.129 2.24,3.167"
             style="fill:#1d4560;fill-opacity:1;fill-rule:nonzero;stroke:none"
             id="path164" /></g><g
           id="g166"
           transform="translate(271.2595,266.9502)"><path
             d="m 0,0 c -0.101,0.014 -0.252,-0.384 -0.324,-0.458 -0.135,-0.139 -0.07,-0.309 -0.036,-0.396 0.034,-0.087 0.065,-0.17 0.067,-0.251 0.004,-0.252 0.008,-0.511 -0.026,-0.76 -0.086,-0.638 -0.269,-1.306 -0.574,-2.104 -0.319,-0.837 -0.665,-1.585 -1.178,-2.316 -0.209,-0.298 -0.388,-0.597 -0.573,-0.908 -0.137,-0.23 -1.034,-1.409 -0.283,-1.359 0.419,0.029 0.74,0.778 0.911,1.087 0.365,0.661 0.786,1.199 1.028,1.91 0.275,0.809 0.665,1.572 0.913,2.396 0.222,0.736 0.447,1.596 0.308,2.488 C 0.221,-0.593 0.214,-0.031 0,0"
             style="fill:#1d4560;fill-opacity:1;fill-rule:nonzero;stroke:none"
             id="path168" /></g><g
           id="g170"
           transform="translate(248.8386,237.1065)"><path
             d="m 0,0 c 2.223,-0.174 4.526,-0.215 6.644,0.56 1.705,0.624 3.253,1.634 4.561,2.888 1.035,0.993 1.924,2.138 2.643,3.379 0.302,0.522 0.582,1.061 0.821,1.614 0.171,0.396 0.722,1.622 -0.252,1.362 C 14.103,9.719 13.836,9.611 13.642,9.336 13.449,9.063 13.376,8.704 13.266,8.394 13.154,8.082 13.015,7.786 12.862,7.49 12.52,6.829 12.129,6.192 11.691,5.59 10.053,3.33 7.697,1.481 4.91,0.945 3.299,0.635 1.29,0.605 -0.686,0.801 c -1.444,0.143 -2.87,0.407 -4.108,0.771 -0.018,0.146 -0.091,0.247 -0.232,0.331 0.563,0.73 1.226,1.42 1.69,2.214 0.126,0.215 0.214,0.467 0.321,0.703 0.106,0.232 0.571,0.848 0.485,1.101 -0.08,0.236 -0.604,0.365 -0.807,0.465 -0.33,0.163 -0.928,0.482 -1.297,0.277 -0.2,-0.11 -0.268,-0.391 -0.395,-0.57 C -5.255,5.777 -5.463,5.455 -5.677,5.131 -6.065,4.542 -6.439,3.944 -6.903,3.412 -7.041,3.557 -7.225,3.614 -7.417,3.563 -7.834,3.454 -8.199,2.859 -8.257,2.577 -8.293,2.424 -8.267,2.273 -8.201,2.126 -8.314,2.013 -8.426,1.899 -8.53,1.778 -8.764,1.508 -8.996,1.333 -9.275,1.125 -9.416,1.019 -9.472,0.958 -9.477,0.78 c -0.021,-0.663 1.127,-1.066 1.674,-1.104 0.162,-0.011 0.343,-0.013 0.495,0.04 0.5,0.176 0.951,0.562 1.34,0.952 0.147,-0.036 0.291,-0.065 0.427,-0.065 0.104,0 0.203,0.022 0.296,0.06 1.145,-0.274 2.358,-0.417 3.54,-0.523 z"
             style="fill:#c41e30;fill-opacity:1;fill-rule:nonzero;stroke:none"
             id="path172" /></g><g
           id="g174"
           transform="translate(243.1237,239.1568)"><path
             d="M 0,0 C -0.281,0.097 -0.494,0.221 -0.711,0.423 -0.807,0.511 -0.896,0.595 -0.961,0.691 -0.974,0.709 -0.989,0.754 -1.002,0.79 -1.028,0.862 -1.056,0.937 -1.106,0.997 -1.213,1.124 -1.362,1.173 -1.518,1.132 -1.834,1.048 -2.111,0.598 -2.155,0.383 c -0.162,-0.675 1.209,-1.303 1.593,-1.412 0.163,-0.046 0.321,-0.085 0.467,-0.085 0.102,0 0.199,0.019 0.285,0.069 0.12,0.068 0.201,0.182 0.243,0.339 C 0.551,-0.259 0.446,-0.154 0,0"
             style="fill:#ffffff;fill-opacity:1;fill-rule:nonzero;stroke:none"
             id="path176" /></g></g></g></g></svg>
